<svg width="92" height="138" viewBox="0 0 92 138" fill="none" xmlns="http://www.w3.org/2000/svg">
<rect width="92" height="138" fill="#D7D7D7"/>
<path fill-rule="evenodd" clip-rule="evenodd" d="M73.125 92.25C73.125 94.389 71.389 96.125 69.25 96.125H59.237L44.9615 81.6616L61.5 65.1231L73.125 76.7481V92.25ZM22.75 96.125C20.611 96.125 18.875 94.389 18.875 92.25V90.4307L34.2685 76.6434L53.752 96.125H22.75ZM30.5 45.75C34.7799 45.75 38.25 49.2201 38.25 53.5C38.25 57.7799 34.7799 61.25 30.5 61.25C26.2201 61.25 22.75 57.7799 22.75 53.5C22.75 49.2201 26.2201 45.75 30.5 45.75ZM69.25 38H22.75C18.4701 38 15 41.4701 15 45.75V92.25C15 96.5299 18.4701 100 22.75 100H69.25C73.5299 100 77 96.5299 77 92.25V45.75C77 41.4701 73.5299 38 69.25 38ZM30.5 57.375C32.639 57.375 34.375 55.639 34.375 53.5C34.375 51.361 32.639 49.625 30.5 49.625C28.361 49.625 26.625 51.361 26.625 53.5C26.625 55.639 28.361 57.375 30.5 57.375Z" fill="#999999"/>
</svg>
